<svg width="40" height="40" viewBox="0 0 40 40" fill="none" xmlns="http://www.w3.org/2000/svg">
<mask id="mask0_67_2307" style="mask-type:alpha" maskUnits="userSpaceOnUse" x="0" y="0" width="40" height="40">
<path d="M30.068 39.9815C30.9518 39.963 31.8418 39.9073 32.7132 39.753C33.597 39.5923 34.4252 39.3453 35.2287 38.9315C36.026 38.5362 36.749 38.0112 37.3733 37.3935C37.9975 36.7758 38.529 36.0593 38.9247 35.2748C39.3325 34.478 39.5922 33.669 39.7528 32.7918C39.9135 31.9272 39.963 31.05 39.9815 30.173C39.9938 29.7715 39.9938 29.37 40 28.9685V11.0253C40 10.6238 40 10.2224 39.9815 9.82088C39.963 8.94997 39.9073 8.06672 39.7528 7.20198C39.5922 6.3249 39.3325 5.50957 38.9247 4.71897C38.5228 3.9407 37.9975 3.22422 37.3733 2.60037C36.749 1.9827 36.0198 1.45769 35.2287 1.06238C34.419 0.660902 33.597 0.401482 32.7132 0.24089C31.8418 0.0864732 30.9518 0.0308833 30.068 0.0123533C29.9012 0.0123533 29.7342 0.00617665 29.4623 0H11.6502L9.94438 0.01853C9.06057 0.03706 8.17058 0.0926498 7.29913 0.247067C6.41533 0.407658 5.58715 0.660902 4.78368 1.06856C3.9864 1.46387 3.26328 1.98888 2.63907 2.60655C2.01483 3.22422 1.48331 3.9407 1.08776 4.72513C0.673672 5.52193 0.420272 6.33107 0.25958 7.20815C0.092707 8.07288 0.0432633 8.94997 0.0185413 9.82705C0.00618047 10.2285 0.00618047 10.63 0 11.0315V28.9747C0 29.3762 0.00618047 29.7777 0.0185413 30.1792C0.0370828 31.05 0.092707 31.9333 0.247218 32.798C0.407912 33.6752 0.66749 34.4905 1.0754 35.281C1.47713 36.0593 2.00247 36.7758 2.6267 37.3997C3.25093 38.0173 3.98022 38.5423 4.77132 38.9377C5.58097 39.3392 6.40297 39.5985 7.28677 39.7592C8.15822 39.9135 9.0482 39.9692 9.93202 39.9877C10.0989 39.9877 10.2658 39.9938 10.5377 40H27.4042L30.0557 39.9877L30.068 39.9815Z" fill="#299400"/>
</mask>
<g mask="url(#mask0_67_2307)">
<path d="M0 0H40V40H0V0Z" fill="#19AA1E"/>
<path fill-rule="evenodd" clip-rule="evenodd" d="M0 0H40V13.125L0 6.875V0Z" fill="#FFB919"/>
<path fill-rule="evenodd" clip-rule="evenodd" d="M0 35.625L40 29.375V40H0V35.625Z" fill="#82D714"/>
<path fill-rule="evenodd" clip-rule="evenodd" d="M0 6.08398L13.9623 8.26557C15.7004 7.1654 17.7682 6.5622 20 6.5622C23.0912 6.5622 25.8677 7.71937 27.8893 9.75142C28.1445 10.0078 28.3852 10.2759 28.6107 10.5544L40 12.334V13.9154L29.7672 12.3166C30.5273 13.7754 30.9375 15.4009 30.9375 17.0597C30.9375 19.2027 30.4582 21.3394 29.4673 23.4847L29.4372 23.5497L29.0163 24.4514H28.0212C25.9663 24.4514 24.6033 25.066 23.7122 26.1554C23.0125 27.0107 22.6078 28.1637 22.4717 29.4217L22.4675 29.461L22.4477 29.662L22.4392 29.7495L22.423 29.9205C22.3708 30.4822 22.336 30.9585 22.3183 31.3467L40 28.584V30.1654L0 36.4154V34.834L17.7015 32.068L17.6938 31.713L17.6915 31.6129L17.69 31.5615L17.6872 31.4824C17.6713 31.0519 17.6318 30.5 17.5687 29.8312L17.5565 29.7044L17.5348 29.4847C17.4078 28.22 17.0092 27.0524 16.3113 26.1844C15.4295 25.0877 14.0791 24.464 12.0408 24.4515L11.9788 24.4514H10.9837L10.5629 23.5497C9.55158 21.3825 9.0625 19.2244 9.0625 17.0597C9.0625 14.3375 10.1669 11.7052 12.1107 9.75142C12.1668 9.69502 12.2235 9.63928 12.2807 9.58423L0 7.6654V6.08398Z" fill="white"/>
<path fill-rule="evenodd" clip-rule="evenodd" d="M20 8.125C25.5843 8.125 29.375 12.4233 29.375 17.06C29.375 18.9215 28.9688 20.8585 28.0212 22.8892C22.5262 22.8892 21.1698 26.8245 20.9133 29.3005L20.897 29.4655C20.81 30.3492 20.7598 31.0582 20.746 31.5927L19.2577 31.8253L19.2573 31.7772C19.2517 31.2168 19.1987 30.4308 19.0985 29.4192L19.0942 29.375C18.8572 26.9043 17.5293 22.8892 11.9788 22.8892C11.0311 20.8585 10.625 18.9215 10.625 17.06C10.625 12.4233 14.4156 8.125 20 8.125Z" fill="#0073FA"/>
</g>
</svg>
