<svg width="20" height="20" viewBox="0 0 20 20" fill="none" xmlns="http://www.w3.org/2000/svg">
<path d="M6.87506 16.875C6.79298 16.8751 6.71168 16.8589 6.63585 16.8275C6.56002 16.7961 6.49115 16.75 6.43319 16.6919C6.37511 16.6339 6.32904 16.565 6.29761 16.4892C6.26618 16.4133 6.25 16.3321 6.25 16.25C6.25 16.1679 6.26618 16.0866 6.29761 16.0108C6.32904 15.935 6.37511 15.8661 6.43319 15.8081L12.2413 9.99998L6.43319 4.19186C6.18897 3.94764 6.18897 3.55217 6.43319 3.30811C6.6774 3.06404 7.07287 3.06389 7.31694 3.30811L13.5669 9.55811C13.625 9.61611 13.6711 9.68499 13.7025 9.76081C13.7339 9.83663 13.7501 9.9179 13.7501 9.99998C13.7501 10.0821 13.7339 10.1633 13.7025 10.2392C13.6711 10.315 13.625 10.3839 13.5669 10.4419L7.31694 16.6919C7.25897 16.75 7.1901 16.7961 7.11427 16.8275C7.03844 16.8589 6.95715 16.8751 6.87506 16.875Z" fill="black"/>
</svg>
