<svg width="123" height="80" viewBox="0 0 123 80" fill="none" xmlns="http://www.w3.org/2000/svg">
<g clip-path="url(#clip0_344_897)">
<path fill-rule="evenodd" clip-rule="evenodd" d="M31.7356 45.6006C31.541 44.1057 31.6937 31.0476 31.6937 28.3434C31.6937 22.0119 33.7891 21.1801 38.9383 18.2735C40.8181 17.2124 42.5779 16.1516 44.4143 15.115L55.3455 8.78284C57.5904 7.50929 58.8821 6.41459 61.2985 6.23921C64.2848 6.02262 65.7551 7.28956 67.7366 8.4104C69.6198 9.47582 71.3675 10.5327 73.211 11.5699C76.8867 13.6379 80.4073 15.7998 84.1373 17.9069C85.3933 18.6165 88.6154 20.3763 89.4973 21.1818C90.9587 22.5167 90.8533 22.885 90.8475 24.1478C90.8409 25.5881 90.8469 27.03 90.8469 28.4705C90.8469 31.4963 91.0027 43.6462 90.8165 45.6006H31.7356ZM60.698 4.53829C59.2914 4.80986 56.4937 6.59151 55.2111 7.37435C50.2078 10.4282 44.4752 13.5749 39.3296 16.6324C37.5837 17.6698 35.9362 18.6471 34.1315 19.6825C32.1745 20.8053 30.7997 22.1112 30.6139 24.5347C30.4224 27.0329 30.5945 37.8984 30.5945 41.3102C30.5945 44.0646 30.5945 46.819 30.5945 49.5734C30.5945 51.858 30.2575 55.5257 31.1657 57.3882C32.1706 59.4491 33.6814 60.009 35.7354 61.204C37.5492 62.2595 39.1779 63.2408 41.0126 64.3017C44.5387 66.3409 48.0033 68.4108 51.525 70.4238C53.2918 71.4336 55.0163 72.4929 56.8081 73.517C58.5358 74.5044 60.462 76.0612 63.1184 75.4327C64.6653 75.0667 72.0046 70.5924 73.8209 69.4994L89.611 60.2794C91.3256 59.2982 92.9313 58.0434 93.1207 55.4207C93.3119 52.7723 93.1349 42.1666 93.1349 38.6406C93.1349 35.8861 93.1349 33.1318 93.1349 30.3774C93.1349 28.1068 93.4764 24.3829 92.5784 22.5466C91.6125 20.5715 89.9913 19.8756 88.0072 18.7358C86.2102 17.7036 84.4592 16.6781 82.712 15.6487C79.202 13.5808 75.7294 11.5892 72.2188 9.51472C70.4751 8.48436 68.7174 7.4504 66.9201 6.43067C65.1311 5.41555 63.4488 4.00728 60.698 4.53829Z" fill="white"/>
<path fill-rule="evenodd" clip-rule="evenodd" d="M95.408 55.9355C95.2082 58.7821 93.7224 60.467 92.0453 61.5487L69.3799 74.7306C67.8972 75.5747 65.1381 77.43 63.4556 77.8294C60.5263 78.5248 58.6036 77.3799 56.6431 76.1917C54.7363 75.036 52.8749 74.0256 50.9371 72.8736L33.9601 63.0267C31.7127 61.7488 30.0647 61.0035 28.9697 58.9903C27.7067 56.6685 28.0512 53.8708 28.0512 50.9775V32.9257C28.0512 30.1202 27.8659 26.6161 28.085 23.8942C28.3054 21.1549 29.7629 19.4756 31.4798 18.3945C33.3038 17.246 35.2489 16.1709 37.1663 15.0612C40.9167 12.8908 44.709 10.6351 48.5132 8.48293C50.2779 7.48461 58.3221 2.51022 60.0605 2.10905C63.1481 1.39657 64.7998 2.60517 66.8826 3.78771L83.932 13.6888C85.8335 14.7668 87.6827 15.8333 89.5595 16.9583C91.7788 18.2886 93.3221 18.8718 94.5357 21.008C95.7725 23.1853 95.4366 26.2512 95.4366 28.9848V47.0366C95.4366 49.8447 95.5998 53.2047 95.408 55.9355ZM26.1758 23.8997V56.0626C26.1758 58.1791 27.1784 59.8516 28.2807 61.331C29.3241 62.7314 33.0867 64.7785 34.9039 65.7678L41.8958 69.8358C42.3172 70.0653 42.596 70.2579 43.0101 70.5013C43.4656 70.7692 43.8004 70.9446 44.2204 71.1979L58.263 79.2752C61.9743 80.7602 64.4844 79.7813 67.5454 77.9819C69.1254 77.0532 70.5619 76.2608 72.1418 75.3321C73.7143 74.4077 75.1397 73.5904 76.7183 72.6624L90.6214 64.5727C92.2343 63.6002 93.5899 62.9697 94.9218 61.627C95.9957 60.5445 97.2392 58.1681 97.2392 56.5711V23.6455C97.2392 22.5934 96.8686 21.5749 96.522 20.8032C95.159 17.7686 93.4742 17.1179 90.779 15.4862L67.6252 2.02768C65.1997 0.64004 64.5181 0 61.3897 0C58.1792 0 54.2271 3.06724 51.3031 4.6601C50.4586 5.12016 49.793 5.55678 48.9706 6.01425L39.6439 11.4341C39.2518 11.6704 38.9146 11.8538 38.5134 12.0833C36.3757 13.3063 29.5184 17.0208 28.3357 18.5592C27.2185 20.0124 26.1758 21.8324 26.1758 23.8997Z" fill="white"/>
<path fill-rule="evenodd" clip-rule="evenodd" d="M60.1178 13.6452L55.1973 13.6369L59.2272 16.5026L57.6753 21.2734C58.815 20.7023 61.0072 18.7048 61.7703 18.425C62.4191 18.8421 63.0743 19.3701 63.6907 19.8204C64.3632 20.312 64.9659 20.8545 65.7266 21.274L64.1906 16.5377L68.2312 13.6419L63.296 13.6609L61.7453 8.91309C60.9745 10.0678 60.9004 12.4953 60.1178 13.6452Z" fill="white"/>
<path fill-rule="evenodd" clip-rule="evenodd" d="M70.9581 16.8044L67.624 16.8157C68.2257 17.5041 69.4859 18.0943 70.2621 18.8144L69.2651 21.9901C70.1837 21.5235 71.0678 20.6397 71.9412 20.0781C72.6953 20.3809 73.8993 21.511 74.7027 21.9932L73.6758 18.8281C74.2986 18.2543 75.7777 17.4367 76.3643 16.8217C72.9772 16.8511 73.1016 17.1302 72.7973 16.1741L72.004 13.665L70.9581 16.8044Z" fill="white"/>
<path fill-rule="evenodd" clip-rule="evenodd" d="M50.3293 16.8305L47.0645 16.8164C47.9223 17.5329 48.815 18.1231 49.7168 18.8147L48.7283 21.9718C49.539 21.6612 50.5851 20.5447 51.4735 20.0735C52.3469 20.5369 53.236 21.4901 54.1433 21.9923L53.1173 18.7815L55.8374 16.8661L52.4378 16.8383L51.4891 13.7002C50.9075 14.4998 50.8986 16.0121 50.3293 16.8305Z" fill="white"/>
<path fill-rule="evenodd" clip-rule="evenodd" d="M78.4241 19.8628H76.3662C76.5958 20.1724 77.7765 20.9525 78.154 21.1977L77.4725 23.3339C78.0129 23.1356 78.7066 22.4358 79.314 22.1035C80.0017 22.4241 80.5036 23.0307 81.1706 23.3446L80.4679 21.2307C80.9282 20.8804 81.9773 20.2299 82.25 19.8628H80.2039C79.6414 19.4923 79.6521 18.298 79.314 17.8057C79.0409 18.2677 78.9192 19.0155 78.7595 19.405C78.5081 20.0184 78.7795 19.6359 78.4241 19.8628Z" fill="white"/>
<path fill-rule="evenodd" clip-rule="evenodd" d="M43.21 19.8628H41.1641C41.3982 20.1651 42.5694 20.941 42.9462 21.1863L42.2686 23.3204C42.973 22.998 43.4666 22.4737 44.0999 22.1035C44.6712 22.3555 45.3182 23.009 45.9612 23.3493L45.2663 21.2372C45.8295 20.78 46.5293 20.399 47.0897 19.893L44.9898 19.8589C44.5595 19.564 44.4158 18.284 44.0999 17.8057C43.7946 18.346 43.7353 18.9982 43.561 19.414C43.3115 20.0094 43.5665 19.6629 43.21 19.8628Z" fill="white"/>
<path fill-rule="evenodd" clip-rule="evenodd" d="M120.8 29.8841C120.591 34.7728 120.929 43.1859 118.702 47.4475C113.965 56.5117 103.185 54.9524 92.9147 54.9501C69.958 54.9448 47.0029 54.9436 24.0473 54.9246C22.2077 54.9678 0.0190624 55.2687 0 55.1857C0.688788 49.6773 1.54259 37.2668 6.24794 33.2452C11.9207 28.3974 24.3699 29.7577 32.2252 29.8285C34.7578 29.8517 37.2889 29.8722 39.822 29.8839C60.0662 29.884 80.3108 29.884 100.555 29.884C106.949 29.8841 113.342 29.8844 119.734 29.8841H120.8Z" fill="#222222"/>
<path fill-rule="evenodd" clip-rule="evenodd" d="M13.6571 31.2093C8.86893 31.4231 4.42654 32.1488 1.6705 34.1136C0.547636 34.9142 -0.359893 36.1435 -1.09873 37.6302C-1.83686 39.1155 -2.39872 40.8416 -2.83856 42.6164C-3.51942 45.3638 -3.9017 48.1982 -4.19992 50.4095C-4.27092 50.9358 -4.33715 51.4269 -4.40151 51.8731C-4.24319 51.8746 -4.02671 51.8752 -3.75861 51.8751C-3.14917 51.8748 -2.27696 51.8705 -1.22441 51.8633C0.880508 51.849 3.70464 51.8231 6.58577 51.7939C12.3488 51.7355 18.3366 51.6639 19.252 51.646L19.2548 51.6459H19.2576C37.7826 51.6587 56.3073 51.6618 74.8328 51.6649C79.1958 51.6656 83.5587 51.6663 87.9218 51.6672C89.2476 51.6674 90.5775 51.6891 91.899 51.7106C95.7066 51.7727 99.4441 51.8336 102.809 51.3774C107.33 50.7644 111.101 49.2258 113.4 45.5559C114.472 43.8448 114.94 41.2688 115.159 38.5712C115.295 36.8926 115.334 35.2068 115.368 33.6754C115.387 32.8539 115.405 32.0768 115.436 31.3691L114.662 31.3691C110.327 31.3692 105.991 31.3692 101.655 31.3691C99.6165 31.3691 97.5782 31.369 95.5399 31.369L34.9856 31.3689L34.9845 31.3689C32.4584 31.3592 29.9344 31.3421 27.4091 31.3229C26.1454 31.3134 24.7689 31.2763 23.3241 31.2374C20.2668 31.155 16.9038 31.0644 13.6571 31.2093ZM23.3669 30.6872C24.8052 30.7259 26.1701 30.7626 27.4133 30.772C29.9382 30.7912 32.4612 30.8082 34.9861 30.818C34.9863 30.818 34.9865 30.818 34.9867 30.818L95.5399 30.8181C97.5783 30.8181 99.6166 30.8181 101.655 30.8182C105.991 30.8182 110.327 30.8183 114.662 30.8181H116.015L116 31.1077C115.961 31.8579 115.942 32.722 115.92 33.6514C115.885 35.2 115.845 36.9298 115.708 38.6158C115.489 41.3198 115.015 44.015 113.867 45.8484C111.442 49.7179 107.477 51.3004 102.883 51.9233C99.4731 52.3857 95.6735 52.3236 91.8532 52.2613C90.5402 52.2398 89.2247 52.2183 87.9217 52.2181C83.556 52.2172 79.1903 52.2165 74.8247 52.2158C56.3028 52.2127 37.7815 52.2097 19.2599 52.1969C18.3316 52.215 12.3471 52.2864 6.59135 52.3448C3.71004 52.374 0.885179 52.3999 -1.22066 52.4143C-2.27349 52.4214 -3.1471 52.4257 -3.75833 52.426C-4.06376 52.4261 -4.30467 52.4253 -4.46997 52.4233C-4.55225 52.4224 -4.61776 52.4211 -4.66373 52.4194C-4.68603 52.4186 -4.70753 52.4175 -4.72524 52.416C-4.73292 52.4154 -4.74707 52.4141 -4.76249 52.4114C-4.76866 52.4103 -4.78674 52.407 -4.8083 52.3995C-4.82033 52.395 -4.85017 52.381 -4.86778 52.3705C-4.8968 52.349 -4.96021 52.2715 -4.98451 52.2117L-5 52.1554L-4.99135 52.0977C-4.91459 51.5856 -4.83544 50.9985 -4.74871 50.3552C-4.45035 48.1422 -4.0623 45.264 -3.37332 42.4839C-2.92806 40.6872 -2.35452 38.9192 -1.5921 37.385C-0.830387 35.8523 0.127797 34.5369 1.35066 33.665C4.25065 31.5976 8.8425 30.8728 13.6326 30.659C16.8984 30.5132 20.2995 30.6047 23.3669 30.6872Z" fill="#222222"/>
<path d="M117.46 43.956C117.46 45.9032 117.412 47.2838 117.316 48.0978C117.228 48.9038 116.941 49.6419 116.454 50.3123C115.976 50.9826 115.325 51.4973 114.503 51.8564C113.681 52.2156 112.724 52.3951 111.63 52.3951C110.593 52.3951 109.659 52.2275 108.829 51.8924C108.007 51.5492 107.345 51.0385 106.842 50.3602C106.339 49.6818 106.04 48.9437 105.944 48.1456C105.849 47.3476 105.801 45.9511 105.801 43.956V40.6403C105.801 38.6931 105.845 37.3165 105.932 36.5105C106.028 35.6965 106.316 34.9543 106.794 34.284C107.281 33.6137 107.935 33.0989 108.757 32.7398C109.579 32.3807 110.537 32.2012 111.63 32.2012C112.668 32.2012 113.597 32.3727 114.419 32.7159C115.249 33.0511 115.916 33.5578 116.418 34.2361C116.921 34.9144 117.22 35.6526 117.316 36.4506C117.412 37.2487 117.46 38.6452 117.46 40.6403V43.956ZM112.42 37.5878C112.42 36.6861 112.368 36.1115 112.265 35.8641C112.169 35.6087 111.965 35.481 111.654 35.481C111.391 35.481 111.187 35.5848 111.044 35.7923C110.908 35.9918 110.84 36.5903 110.84 37.5878V46.6374C110.84 47.7626 110.884 48.4569 110.972 48.7202C111.068 48.9836 111.283 49.1152 111.618 49.1152C111.962 49.1152 112.181 48.9636 112.277 48.6604C112.372 48.3571 112.42 47.6349 112.42 46.4937V37.5878Z" fill="white"/>
<path d="M104.796 32.6084V36.4868H101.803V51.9884H96.7638V36.4868H93.7832V32.6084H104.796Z" fill="white"/>
<path d="M92.6934 32.6084V45.5603C92.6934 47.0287 92.6456 48.0621 92.5498 48.6606C92.454 49.2511 92.1707 49.8616 91.6999 50.4921C91.2291 51.1145 90.6066 51.5893 89.8325 51.9165C89.0664 52.2357 88.1607 52.3953 87.1153 52.3953C85.9581 52.3953 84.9367 52.2038 84.0509 51.8208C83.1651 51.4377 82.5027 50.939 82.0638 50.3245C81.6249 49.71 81.3655 49.0636 81.2857 48.3853C81.2059 47.699 81.166 46.2625 81.166 44.076V32.6084H86.2055V47.1404C86.2055 47.9863 86.2494 48.5289 86.3372 48.7683C86.433 48.9998 86.6205 49.1155 86.8998 49.1155C87.219 49.1155 87.4225 48.9878 87.5103 48.7324C87.6061 48.4691 87.6539 47.8546 87.6539 46.889V32.6084H92.6934Z" fill="white"/>
<path d="M77.4912 32.6084L80.3761 51.9884H75.2169L74.9655 48.505H73.158L72.8587 51.9884H67.6396L70.2013 32.6084H77.4912ZM74.8218 45.0695C74.5665 42.8749 74.3111 40.1657 74.0557 36.9417C73.545 40.6445 73.2258 43.3538 73.0981 45.0695H74.8218Z" fill="white"/>
<path d="M67.0416 41.6819V45.5722C67.0416 47.0007 66.9697 48.0501 66.8261 48.7204C66.6824 49.3828 66.3752 50.0052 65.9044 50.5878C65.4335 51.1624 64.827 51.5893 64.0849 51.8686C63.3507 52.1399 62.5048 52.2756 61.5472 52.2756C60.4778 52.2756 59.5721 52.1599 58.8299 51.9285C58.0877 51.6891 57.5092 51.3339 57.0942 50.8631C56.6872 50.3843 56.3959 49.8097 56.2204 49.1394C56.0448 48.4611 55.957 47.4476 55.957 46.0989V42.029C55.957 40.5527 56.1166 39.3995 56.4358 38.5696C56.7551 37.7396 57.3296 37.0733 58.1596 36.5705C58.9895 36.0678 60.0509 35.8164 61.3437 35.8164C62.429 35.8164 63.3587 35.98 64.1328 36.3072C64.9148 36.6264 65.5173 37.0454 65.9403 37.5641C66.3632 38.0828 66.6505 38.6175 66.8021 39.1681C66.9618 39.7187 67.0416 40.5567 67.0416 41.6819ZM62.2055 40.4848C62.2055 39.6709 62.1617 39.1601 62.0739 38.9526C61.9861 38.7372 61.7986 38.6294 61.5113 38.6294C61.224 38.6294 61.0324 38.7372 60.9367 38.9526C60.8409 39.1601 60.793 39.6709 60.793 40.4848V47.6551C60.793 48.4052 60.8409 48.896 60.9367 49.1274C61.0324 49.3509 61.22 49.4626 61.4993 49.4626C61.7866 49.4626 61.9741 49.3588 62.0619 49.1513C62.1577 48.9439 62.2055 48.497 62.2055 47.8107V40.4848Z" fill="white"/>
<path d="M52.1505 36.1037L51.9589 38.1865C52.6612 36.6942 53.6787 35.9042 55.0114 35.8164V41.4065C54.1256 41.4065 53.4752 41.5263 53.0602 41.7657C52.6452 42.0051 52.3899 42.3402 52.2941 42.7712C52.1983 43.1941 52.1505 44.1757 52.1505 45.7159V51.9883H47.3145V36.1037H52.1505Z" fill="white"/>
<path d="M39.4132 32.6084V37.193C39.8122 36.7302 40.2551 36.387 40.7419 36.1636C41.2366 35.9322 41.7713 35.8164 42.3459 35.8164C43.0082 35.8164 43.5828 35.9202 44.0696 36.1277C44.5564 36.3352 44.9275 36.6264 45.1829 37.0015C45.4382 37.3766 45.5898 37.7437 45.6377 38.1028C45.6936 38.4619 45.7215 39.228 45.7215 40.4011V47.5593C45.7215 48.7244 45.6417 49.5943 45.4821 50.1689C45.3305 50.7355 44.9674 51.2302 44.3928 51.6532C43.8182 52.0682 43.1359 52.2756 42.3459 52.2756C41.7793 52.2756 41.2486 52.152 40.7538 51.9046C40.267 51.6572 39.8202 51.2861 39.4132 50.7913L39.1019 51.9884H34.5771V32.6084H39.4132ZM40.8855 40.6165C40.8855 39.7946 40.8336 39.2599 40.7299 39.0125C40.6262 38.7572 40.4227 38.6295 40.1194 38.6295C39.8241 38.6295 39.6326 38.7412 39.5448 38.9646C39.4571 39.1801 39.4132 39.7307 39.4132 40.6165V47.4636C39.4132 48.3175 39.461 48.8641 39.5568 49.1035C39.6605 49.3429 39.8601 49.4626 40.1553 49.4626C40.4586 49.4626 40.6541 49.3389 40.7419 49.0915C40.8376 48.8442 40.8855 48.2496 40.8855 47.308V40.6165Z" fill="white"/>
<path d="M30.9746 32.6084L33.8595 51.9884H28.7003L28.4489 48.505H26.6414L26.3421 51.9884H21.123L23.6847 32.6084H30.9746ZM28.3052 45.0695C28.0499 42.8749 27.7945 40.1657 27.5391 36.9417C27.0284 40.6445 26.7092 43.3538 26.5815 45.0695H28.3052Z" fill="white"/>
<path d="M8.72168 32.6084H12.4923C14.9263 32.6084 16.5702 32.7201 17.4241 32.9436C18.286 33.167 18.9403 33.5341 19.3872 34.0448C19.8341 34.5556 20.1134 35.1262 20.2252 35.7566C20.3369 36.3791 20.3927 37.608 20.3927 39.4435V46.2306C20.3927 47.9703 20.309 49.1354 20.1414 49.726C19.9818 50.3085 19.6985 50.7674 19.2915 51.1026C18.8845 51.4297 18.3817 51.6612 17.7832 51.7968C17.1847 51.9245 16.2829 51.9884 15.0779 51.9884H8.72168V32.6084ZM13.7612 35.9242V48.6726C14.4874 48.6726 14.9343 48.5289 15.1019 48.2416C15.2694 47.9464 15.3532 47.1523 15.3532 45.8595V38.3302C15.3532 37.4524 15.3253 36.8898 15.2694 36.6424C15.2136 36.395 15.0859 36.2155 14.8864 36.1037C14.6869 35.984 14.3118 35.9242 13.7612 35.9242Z" fill="white"/>
</g>
<defs>
<clipPath id="clip0_344_897">
<rect width="122.437" height="80" fill="white"/>
</clipPath>
</defs>
</svg>
