<svg width="12" height="12" viewBox="0 0 12 12" fill="none" xmlns="http://www.w3.org/2000/svg">
<path d="M11.9687 4.76236C11.9303 4.64344 11.8578 4.53845 11.7602 4.46047C11.6625 4.38249 11.5441 4.33497 11.4197 4.32383L7.95613 4.00932L6.58657 0.803688C6.48555 0.568768 6.25558 0.416748 6.00005 0.416748C5.74453 0.416748 5.51453 0.568791 5.41356 0.804274L4.04398 4.00934L0.5799 4.32383C0.455588 4.33522 0.337352 4.38284 0.23985 4.46079C0.142349 4.53875 0.0698707 4.6436 0.0314016 4.76236C-0.0476082 5.00537 0.0253546 5.27188 0.217899 5.43988L2.83593 7.73588L2.06393 11.1365C2.00744 11.3866 2.10448 11.645 2.31195 11.795C2.42345 11.8756 2.55393 11.9166 2.68549 11.9166C2.79893 11.9166 2.91143 11.886 3.01245 11.8256L6.00005 10.04L8.98658 11.8256C9.20512 11.9571 9.48061 11.945 9.68762 11.795C9.78896 11.7216 9.8665 11.6201 9.9106 11.503C9.9547 11.386 9.9634 11.2585 9.93564 11.1365L9.16366 7.73588L11.7817 5.44035C11.8758 5.3581 11.9438 5.24999 11.977 5.12945C12.0103 5.00891 12.0074 4.88126 11.9687 4.76236Z" fill="#FFC107"/>
</svg>
