<svg width="40" height="40" viewBox="0 0 40 40" fill="none" xmlns="http://www.w3.org/2000/svg">
<g clip-path="url(#clip0_67_2337)">
<path d="M27.2 0H12.8C5.73075 0 0 5.73075 0 12.8V27.2C0 34.2692 5.73075 40 12.8 40H27.2C34.2692 40 40 34.2692 40 27.2V12.8C40 5.73075 34.2692 0 27.2 0Z" fill="white"/>
<path d="M20 7C18.0223 6.99947 16.0889 7.60912 14.4444 8.75185C12.7998 9.89458 11.518 11.519 10.7612 13.4197C10.0043 15.3204 9.80628 17.4119 10.1922 19.4297C10.5782 21.4474 11.5308 23.3008 12.9295 24.7553C14.7382 26.6368 19.0003 29.36 19.2502 32.22C19.2897 32.6511 19.5856 33 20 33C20.4144 33 20.7103 32.6511 20.7498 32.22C20.9997 29.36 25.2618 26.6368 27.0705 24.7553C28.4692 23.3008 29.4218 21.4474 29.8078 19.4297C30.1937 17.4119 29.9957 15.3204 29.2388 13.4197C28.482 11.519 27.2002 9.89458 25.5556 8.75185C23.9111 7.60912 21.9777 6.99947 20 7Z" fill="#FF4433"/>
<path d="M20.0001 21.2167C21.1289 21.2167 22.2114 20.7683 23.0096 19.9702C23.8077 19.172 24.2561 18.0895 24.2561 16.9607C24.2561 15.832 23.8077 14.7494 23.0096 13.9513C22.2114 13.1531 21.1289 12.7047 20.0001 12.7047C18.8714 12.7047 17.7888 13.1531 16.9907 13.9513C16.1925 14.7494 15.7441 15.832 15.7441 16.9607C15.7441 18.0895 16.1925 19.172 16.9907 19.9702C17.7888 20.7683 18.8714 21.2167 20.0001 21.2167Z" fill="white"/>
<path fill-rule="evenodd" clip-rule="evenodd" d="M27.2 0.8H12.8C9.6174 0.8 6.56516 2.06428 4.31472 4.31472C2.06428 6.56516 0.8 9.6174 0.8 12.8V27.2C0.8 30.3826 2.06428 33.4348 4.31472 35.6853C6.56516 37.9357 9.6174 39.2 12.8 39.2H27.2C30.3826 39.2 33.4348 37.9357 35.6853 35.6853C37.9357 33.4348 39.2 30.3826 39.2 27.2V12.8C39.2 9.6174 37.9357 6.56516 35.6853 4.31472C33.4348 2.06428 30.3826 0.8 27.2 0.8ZM12.8 0C9.40523 0 6.1495 1.34857 3.74903 3.74903C1.34857 6.1495 0 9.40523 0 12.8L0 27.2C0 30.5948 1.34857 33.8505 3.74903 36.251C6.1495 38.6514 9.40523 40 12.8 40H27.2C30.5948 40 33.8505 38.6514 36.251 36.251C38.6514 33.8505 40 30.5948 40 27.2V12.8C40 9.40523 38.6514 6.1495 36.251 3.74903C33.8505 1.34857 30.5948 0 27.2 0L12.8 0Z" fill="black" fill-opacity="0.12"/>
</g>
<defs>
<clipPath id="clip0_67_2337">
<rect width="40" height="40" fill="white"/>
</clipPath>
</defs>
</svg>
