<svg width="28" height="28" viewBox="0 0 28 28" fill="none" xmlns="http://www.w3.org/2000/svg">
<path d="M14 28C21.732 28 28 21.732 28 14C28 6.26801 21.732 0 14 0C6.26801 0 0 6.26801 0 14C0 21.732 6.26801 28 14 28Z" fill="url(#paint0_linear_306_889)"/>
<path fill-rule="evenodd" clip-rule="evenodd" d="M6.3372 13.8522C10.4185 12.074 13.14 10.9018 14.5017 10.3354C18.3896 8.7183 19.1975 8.43737 19.724 8.42808C19.8399 8.42605 20.0988 8.45476 20.2665 8.59088C20.5154 8.79279 20.5168 9.23105 20.4892 9.52111C20.2785 11.7349 19.3668 17.107 18.903 19.5864C18.7067 20.6355 18.3203 20.9873 17.9463 21.0217C17.1333 21.0965 16.5159 20.4844 15.7285 19.9683C14.4963 19.1606 13.8002 18.6578 12.6041 17.8696C11.2219 16.9587 12.1179 16.4581 12.9057 15.6399C13.1118 15.4258 16.6939 12.1676 16.7633 11.872C16.772 11.8351 16.78 11.6972 16.6981 11.6245C16.6163 11.5518 16.4955 11.5766 16.4083 11.5964C16.2847 11.6245 14.3163 12.9255 10.503 15.4996C9.94428 15.8832 9.4382 16.0702 8.98479 16.0604C8.48489 16.0496 7.52337 15.7777 6.80855 15.5454C5.9318 15.2604 5.23498 15.1097 5.29568 14.6257C5.32729 14.3735 5.67444 14.1157 6.3372 13.8522Z" fill="white"/>
<defs>
<linearGradient id="paint0_linear_306_889" x1="14" y1="0" x2="14" y2="27.7813" gradientUnits="userSpaceOnUse">
<stop stop-color="#2AABEE"/>
<stop offset="1" stop-color="#229ED9"/>
</linearGradient>
</defs>
</svg>
