<svg width="28" height="28" viewBox="0 0 28 28" fill="none" xmlns="http://www.w3.org/2000/svg">
<g clip-path="url(#clip0_13_4655)">
<path d="M14 3C7.92486 3 3 7.92486 3 14C3 20.0751 7.92486 25 14 25C20.0751 25 25 20.0751 25 14C25 7.92486 20.0751 3 14 3Z" fill="white"/>
<path d="M14 0C6.26801 0 0 6.26801 0 14C0 21.732 6.26801 28 14 28C21.732 28 28 21.732 28 14C28 6.26801 21.732 0 14 0ZM22.2158 19.1155L19.8008 19.1487C19.8008 19.1487 19.2813 19.2518 18.5998 18.7802C17.6953 18.1594 16.8442 16.5476 16.1811 16.7539C15.518 16.9602 15.529 18.4118 15.529 18.4118C15.5311 18.5821 15.4789 18.7486 15.3798 18.8871C15.2404 19.0065 15.0685 19.0816 14.8862 19.1026H13.8159C13.8159 19.1026 11.4212 19.2445 9.33034 17.0597C7.03139 14.6871 5.00691 9.94733 5.00691 9.94733C5.00691 9.94733 4.8877 9.67241 5.01796 9.4868C5.13056 9.32635 5.40827 9.30912 5.54848 9.30262C6.15295 9.27434 7.96901 9.28605 7.96901 9.28605C8.12093 9.28227 8.22303 9.29026 8.4111 9.37262C8.57276 9.45252 8.69537 9.57152 8.77401 9.76314C9.05342 10.4589 9.3777 11.1358 9.74482 11.7895C10.8243 13.6555 11.3272 14.0626 11.6938 13.8637C12.2262 13.5726 12.0622 11.2276 12.0622 11.2276C12.0622 11.2276 12.0622 10.3747 11.7933 9.99709C11.5908 9.76059 11.3053 9.6109 10.9956 9.57895C10.8501 9.55866 11.0896 9.22157 11.3991 9.07052C11.8632 8.84209 12.6849 8.84209 13.6538 8.84209C14.0802 8.82602 14.5067 8.86944 14.9212 8.97105C15.8127 9.18657 15.5106 10.0155 15.5106 12.0087C15.5106 12.646 15.3946 13.545 15.8551 13.8508C16.0541 13.9779 16.5367 13.8692 17.7488 11.8134C18.1355 11.1331 18.471 10.425 18.7527 9.69495C18.807 9.57893 18.8893 9.47826 18.9922 9.40204C19.101 9.34786 19.2234 9.32672 19.3441 9.34123L22.063 9.3228C22.063 9.3228 22.8791 9.22518 23.0117 9.59541C23.1443 9.9657 22.7059 10.8849 21.5951 12.3586C19.7714 14.7901 19.5688 14.5691 21.083 15.9672C22.5291 17.3101 22.8294 17.9641 22.8791 18.0451C23.4795 19.0363 22.2158 19.1155 22.2158 19.1155Z" fill="#006DE7"/>
</g>
<defs>
<clipPath id="clip0_13_4655">
<rect width="28" height="28" fill="white"/>
</clipPath>
</defs>
</svg>
