<svg width="28" height="28" viewBox="0 0 28 28" fill="none" xmlns="http://www.w3.org/2000/svg">
<g clip-path="url(#clip0_306_894)">
<path d="M14 28C21.732 28 28 21.732 28 14C28 6.26801 21.732 0 14 0C6.26801 0 0 6.26801 0 14C0 21.732 6.26801 28 14 28Z" fill="#29A71A"/>
<path d="M20.1731 7.82725C18.7165 6.35613 16.7822 5.45395 14.719 5.28342C12.6558 5.1129 10.5996 5.68526 8.92123 6.89727C7.24289 8.10928 6.05289 9.88115 5.5659 11.8933C5.07891 13.9054 5.32697 16.0253 6.26535 17.8707L5.34422 22.3427C5.33466 22.3872 5.33439 22.4332 5.34342 22.4778C5.35245 22.5225 5.3706 22.5647 5.39672 22.602C5.43498 22.6586 5.48959 22.7022 5.55327 22.7269C5.61695 22.7516 5.68665 22.7564 5.75308 22.7404L10.136 21.7016C11.9762 22.6162 14.0811 22.8483 16.0764 22.3566C18.0716 21.8649 19.8276 20.6813 21.0321 19.0164C22.2365 17.3515 22.8113 15.3132 22.654 13.2643C22.4967 11.2154 21.6176 9.28881 20.1731 7.82725ZM18.8065 18.7345C17.7987 19.7395 16.5009 20.4029 15.0961 20.6312C13.6913 20.8596 12.2502 20.6413 10.976 20.0072L10.3651 19.705L7.67808 20.3413L7.68603 20.3079L8.24285 17.6034L7.94376 17.0132C7.2927 15.7345 7.06303 14.2826 7.28765 12.8654C7.51227 11.4482 8.17966 10.1385 9.19422 9.12384C10.469 7.84943 12.1978 7.13351 14.0004 7.13351C15.8029 7.13351 17.5317 7.84943 18.8065 9.12384C18.8173 9.13629 18.829 9.14798 18.8415 9.15884C20.1005 10.4365 20.8033 12.1601 20.7968 13.9539C20.7902 15.7476 20.0748 17.4661 18.8065 18.7345Z" fill="white"/>
<path d="M18.5674 16.7507C18.238 17.2694 17.7178 17.9041 17.0639 18.0616C15.9185 18.3385 14.1605 18.0712 11.973 16.0316L11.946 16.0078C10.0226 14.2244 9.52303 12.7401 9.64394 11.5628C9.71076 10.8946 10.2676 10.2901 10.7369 9.89551C10.8111 9.83218 10.8991 9.7871 10.9938 9.76385C11.0886 9.74061 11.1874 9.73986 11.2825 9.76166C11.3776 9.78346 11.4662 9.82721 11.5414 9.8894C11.6166 9.95159 11.6761 10.0305 11.7153 10.1198L12.4233 11.7107C12.4693 11.8139 12.4863 11.9276 12.4726 12.0397C12.4588 12.1518 12.4149 12.2581 12.3453 12.3471L11.9874 12.8116C11.9105 12.9076 11.8642 13.0243 11.8543 13.1468C11.8444 13.2692 11.8713 13.3919 11.9317 13.4989C12.1321 13.8505 12.6126 14.3676 13.1455 14.8464C13.7437 15.3873 14.4071 15.8821 14.8271 16.0507C14.9395 16.0966 15.0631 16.1079 15.1819 16.0829C15.3007 16.0579 15.4093 15.998 15.4937 15.9107L15.9089 15.4923C15.9891 15.4133 16.0887 15.357 16.1977 15.329C16.3067 15.3011 16.4211 15.3025 16.5294 15.3332L18.211 15.8105C18.3038 15.839 18.3888 15.8883 18.4596 15.9546C18.5304 16.021 18.585 16.1026 18.6194 16.1934C18.6538 16.2841 18.667 16.3815 18.658 16.4781C18.6489 16.5747 18.618 16.6679 18.5674 16.7507Z" fill="white"/>
</g>
<defs>
<clipPath id="clip0_306_894">
<rect width="28" height="28" fill="white"/>
</clipPath>
</defs>
</svg>
