<svg width="28" height="28" viewBox="0 0 28 28" fill="none" xmlns="http://www.w3.org/2000/svg">
<g clip-path="url(#clip0_306_902)">
<path d="M14 28C21.732 28 28 21.732 28 14C28 6.26801 21.732 0 14 0C6.26801 0 0 6.26801 0 14C0 21.732 6.26801 28 14 28Z" fill="#E21A20"/>
<path fill-rule="evenodd" clip-rule="evenodd" d="M21.5727 11.7951C21.4655 10.3185 21.1964 8.79381 19.3086 8.68225C15.7714 8.48059 12.2255 8.48059 8.68829 8.68225C6.80048 8.79162 6.53142 10.3185 6.42423 11.7951C6.31432 13.263 6.31432 14.7371 6.42423 16.2051C6.53142 17.6816 6.80048 19.2063 8.68829 19.3179C12.2255 19.5195 15.7714 19.5195 19.3086 19.3179C21.1964 19.2085 21.4655 17.6816 21.5727 16.2051C21.6826 14.7371 21.6826 13.263 21.5727 11.7951ZM12.4683 15.9688V11.5938L16.6245 13.7813L12.4683 15.9688Z" fill="white"/>
</g>
<defs>
<clipPath id="clip0_306_902">
<rect width="28" height="28" fill="white"/>
</clipPath>
</defs>
</svg>
