<svg width="32" height="32" viewBox="0 0 32 32" fill="none" xmlns="http://www.w3.org/2000/svg">
<g clip-path="url(#clip0_53_1139)">
<mask id="mask0_53_1139" style="mask-type:luminance" maskUnits="userSpaceOnUse" x="0" y="0" width="32" height="32">
<path d="M0 9.53674e-05H31.9999V32H0V9.53674e-05Z" fill="white"/>
</mask>
<g mask="url(#mask0_53_1139)">
<path d="M29.2812 30.125H26.849V25.2899C26.849 24.7721 26.4294 24.3524 25.9115 24.3524C25.3938 24.3524 24.9741 24.7721 24.9741 25.2899V30.125H21.0963L22.0926 24.5046C22.1358 24.2605 22.0806 24.0091 21.9391 23.8056L20.5913 21.8679C20.9025 21.6242 21.1479 21.3066 21.3053 20.944H26.1785L28.9424 23.8461C29.1606 24.0748 29.2819 24.379 29.2812 24.6951V30.125ZM19.0973 30.125L18.1106 24.5585L19.1447 23.0718L20.1788 24.5585L19.1921 30.125H19.0973ZM12.3314 22.3159H6.92311C5.71098 22.3159 4.72493 21.3231 4.72493 20.1028V17.5022H6.08142V20.0065C6.08142 20.5243 6.50117 20.944 7.01892 20.944H16.9841C17.1414 21.3067 17.3869 21.6242 17.6981 21.8679L16.3503 23.8056C16.2087 24.0091 16.1536 24.2605 16.1968 24.5046L17.193 30.125H13.2689V23.2534C13.2689 22.7357 12.8492 22.3159 12.3314 22.3159ZM5.40317 14.094C5.77717 14.094 6.08142 14.4017 6.08142 14.78V15.6272H4.72493V14.78C4.72493 14.4017 5.02917 14.094 5.40317 14.094ZM19.1447 18.4856C19.3061 18.4856 19.466 18.4785 19.6239 18.4647V20.0065C19.6239 20.2745 19.4089 20.4925 19.1447 20.4925C18.8804 20.4925 18.6654 20.2745 18.6654 20.0065V18.4647C18.8248 18.4786 18.9847 18.4856 19.1447 18.4856ZM15.553 12.9973V10.8424H22.4588C22.5521 10.8424 22.6447 10.8391 22.7364 10.8324V12.9973C22.7364 14.9896 21.1252 16.6106 19.1447 16.6106C17.1642 16.6106 15.553 14.9896 15.553 12.9973ZM15.553 7.47076C15.553 6.30602 16.5005 5.35839 17.6653 5.35839H24.3858V7.04045C24.3858 8.10295 23.5214 8.96744 22.4588 8.96744H15.553V7.47076ZM2.71874 6.89514V2.25421C2.71886 2.1537 2.75884 2.05733 2.82992 1.98626C2.90099 1.91519 2.99735 1.87521 3.09787 1.87509H7.70842C7.80893 1.87521 7.90529 1.91519 7.97637 1.98626C8.04744 2.05733 8.08742 2.1537 8.08754 2.25421V6.89514C8.08742 6.99565 8.04744 7.09202 7.97637 7.16309C7.90529 7.23417 7.80893 7.27415 7.70842 7.27426H3.09787C2.99735 7.27415 2.90099 7.23417 2.82992 7.16309C2.75884 7.09202 2.71886 6.99565 2.71874 6.89514ZM30.3001 22.553L27.2592 19.36C27.1717 19.268 27.0664 19.1948 26.9497 19.1448C26.833 19.0948 26.7073 19.069 26.5804 19.069H21.4989V17.9502C23.3382 17.0654 24.6114 15.1779 24.6114 12.9973V10.1728C25.607 9.48651 26.2608 8.33838 26.2608 7.04045V4.42089C26.2608 3.90315 25.841 3.4834 25.3233 3.4834H17.6653C15.4666 3.4834 13.678 5.27214 13.678 7.47076V12.9973C13.678 15.1779 14.9512 17.0654 16.7905 17.9502V19.069H7.95642V14.78C7.95642 13.6997 7.28604 12.7735 6.34067 12.3978V9.14926H7.70842C8.95135 9.14926 9.96253 8.13807 9.96253 6.89514V2.25421C9.96253 1.01128 8.95135 9.53674e-05 7.70842 9.53674e-05H3.09787C1.85494 9.53674e-05 0.84375 1.01128 0.84375 2.25421V6.89514C0.84375 8.13807 1.85494 9.14926 3.09787 9.14926H4.46568V12.3978C3.52024 12.7735 2.84993 13.6997 2.84993 14.78V20.1028C2.84993 22.357 4.67711 24.1909 6.92311 24.1909H11.3939V31.0625C11.3939 31.5803 11.8137 32 12.3314 32H30.2187C30.7364 32 31.1562 31.5803 31.1562 31.0625V24.6951C31.1562 23.8933 30.8522 23.1326 30.3001 22.553Z" fill="#EB1C24"/>
</g>
</g>
<defs>
<clipPath id="clip0_53_1139">
<rect width="32" height="32" fill="white"/>
</clipPath>
</defs>
</svg>
