<svg width="32" height="32" viewBox="0 0 32 32" fill="none" xmlns="http://www.w3.org/2000/svg">
<g clip-path="url(#clip0_54_1154)">
<path d="M23.8112 31.0625H2.23633V4.83969H7.61827M18.3522 4.83969H23.8112V18.8315" stroke="#EB1C24" stroke-width="2" stroke-miterlimit="10" stroke-linecap="round" stroke-linejoin="round"/>
<path d="M9.67887 12.1294C9.28 11.8952 8.31938 11.4673 7.57775 11.7751C6.58419 12.1873 6.40531 13.3107 7.11594 14.0278C7.55788 14.4738 8.04412 14.5537 8.85231 14.8604C9.86225 15.2437 10.2266 16.1202 9.98875 16.9291C9.78606 17.6185 9.12175 18.1199 8.23194 18.1199C7.68519 18.1199 7.08025 17.9407 6.57981 17.6039M8.31769 18.2187V19.059M8.31769 10.7957V11.5937M13.9272 11.4229H19.5625M13.9272 15.2409H19.5625M13.9272 19.059H19.5625M6.48438 22.8771H18.1765M6.48438 26.6951H17.8564M15.7256 2.91056C15.3602 1.76631 14.2888 0.9375 13.0234 0.9375C11.7581 0.9375 10.6866 1.76631 10.3213 2.91056H7.87031V6.81225H18.1765V2.91056H15.7256Z" stroke="#EB1C24" stroke-width="2" stroke-miterlimit="10" stroke-linecap="round" stroke-linejoin="round"/>
<path d="M28.0202 29.3188C30.345 26.9939 30.3449 23.2246 28.02 20.8998C25.6951 18.575 21.9258 18.575 19.601 20.8999C17.2762 23.2248 17.2763 26.9941 19.6012 29.3189C21.9261 31.6437 25.6954 31.6437 28.0202 29.3188Z" stroke="#EB1C24" stroke-width="2" stroke-miterlimit="10" stroke-linecap="round" stroke-linejoin="round"/>
<path d="M21.8457 25.131L23.1414 26.4267L25.7761 23.7921" stroke="#EB1C24" stroke-width="2" stroke-miterlimit="10" stroke-linecap="round" stroke-linejoin="round"/>
</g>
<defs>
<clipPath id="clip0_54_1154">
<rect width="32" height="32" fill="white"/>
</clipPath>
</defs>
</svg>
