<svg width="32" height="32" viewBox="0 0 32 32" fill="none" xmlns="http://www.w3.org/2000/svg">
<g clip-path="url(#clip0_54_1147)">
<path d="M19.7635 0.972686C19.7635 0.960936 19.7642 0.949311 19.7643 0.937561H12.3655C12.3657 0.949311 12.3663 0.960873 12.3663 0.972686C12.3663 1.96656 11.5627 2.77231 10.5714 2.77231C10.5277 2.77231 10.4843 2.77019 10.4414 2.76712V10.4475C10.4414 11.4556 10.9923 12.3827 11.8765 12.8627L16.0062 15.1042L20.1255 12.8632C21.0085 12.3829 21.5583 11.4565 21.5583 10.4493V2.77225C20.5671 2.77225 19.7635 1.96656 19.7635 0.972686Z" stroke="#EB1C24" stroke-width="2" stroke-miterlimit="10" stroke-linecap="round" stroke-linejoin="round"/>
<path d="M13.9258 7.7215L15.2492 8.85969L18.0732 6.43106" stroke="#EB1C24" stroke-width="2" stroke-miterlimit="10" stroke-linecap="round" stroke-linejoin="round"/>
<path d="M27.3125 15.4606V6.88069C27.3125 5.85713 28.1149 4.99032 29.138 4.96394C30.1961 4.93669 31.0625 5.78638 31.0625 6.83844V16.1728C31.0625 16.9528 30.8409 17.7168 30.4236 18.3758L24.3853 26.6724V31.0625H7.61475V26.6724L1.57637 18.3758C1.15905 17.7168 0.937498 16.9528 0.9375 16.1728V6.88069C0.9375 5.85713 1.73987 4.99032 2.763 4.96394C3.82113 4.93669 4.6875 5.78638 4.6875 6.83844V15.4605" stroke="#EB1C24" stroke-width="2" stroke-miterlimit="10" stroke-linecap="round" stroke-linejoin="round"/>
<path d="M16 23.7737C16 22.7382 15.5826 21.7984 14.9042 21.1198L7.88831 14.1033C7.15606 13.371 5.96887 13.371 5.23669 14.1033C4.50444 14.8357 4.50444 16.0229 5.23669 16.7552L8.65625 20.1751M16 23.7737C16 22.7382 16.4173 21.7984 17.0958 21.1198L24.1117 14.1033C24.8439 13.371 26.0311 13.371 26.7633 14.1033C27.4956 14.8357 27.4956 16.0229 26.7633 16.7552L23.344 20.177M16 23.7737V31.0625" stroke="#EB1C24" stroke-width="2" stroke-miterlimit="10" stroke-linecap="round" stroke-linejoin="round"/>
</g>
<defs>
<clipPath id="clip0_54_1147">
<rect width="32" height="32" fill="white"/>
</clipPath>
</defs>
</svg>
